<mxfile host="app.diagrams.net" agent="Mozilla/5.0 (Windows NT 10.0; Win64; x64) AppleWebKit/537.36 (KHTML, like Gecko) Chrome/132.0.0.0 Safari/537.36 Edg/132.0.0.0" version="26.0.6">
  <diagram name="Page-1" id="lj0-dRoGf2TWOGDxFP8s">
    <mxGraphModel dx="866" dy="558" grid="1" gridSize="10" guides="1" tooltips="1" connect="1" arrows="1" fold="1" page="1" pageScale="1" pageWidth="850" pageHeight="1100" math="0" shadow="0">
      <root>
        <mxCell id="0" />
        <mxCell id="1" parent="0" />
        <mxCell id="XKWNuatbYuGmgxDe8Qxi-2" value="" style="rounded=0;whiteSpace=wrap;html=1;" vertex="1" parent="1">
          <mxGeometry x="110" y="70" width="500" height="310" as="geometry" />
        </mxCell>
        <mxCell id="XKWNuatbYuGmgxDe8Qxi-1" value="" style="sketch=0;points=[[0,0,0],[0.25,0,0],[0.5,0,0],[0.75,0,0],[1,0,0],[0,1,0],[0.25,1,0],[0.5,1,0],[0.75,1,0],[1,1,0],[0,0.25,0],[0,0.5,0],[0,0.75,0],[1,0.25,0],[1,0.5,0],[1,0.75,0]];outlineConnect=0;fontColor=#232F3E;fillColor=#8C4FFF;strokeColor=#ffffff;dashed=0;verticalLabelPosition=bottom;verticalAlign=top;align=center;html=1;fontSize=12;fontStyle=0;aspect=fixed;shape=mxgraph.aws4.resourceIcon;resIcon=mxgraph.aws4.glue;" vertex="1" parent="1">
          <mxGeometry x="453.5" y="150" width="73" height="73" as="geometry" />
        </mxCell>
        <mxCell id="XKWNuatbYuGmgxDe8Qxi-3" value="" style="outlineConnect=0;dashed=0;verticalLabelPosition=bottom;verticalAlign=top;align=center;html=1;shape=mxgraph.aws3.athena;fillColor=#F58534;gradientColor=none;" vertex="1" parent="1">
          <mxGeometry x="295" y="280" width="70" height="79" as="geometry" />
        </mxCell>
        <mxCell id="XKWNuatbYuGmgxDe8Qxi-4" value="" style="outlineConnect=0;dashed=0;verticalLabelPosition=bottom;verticalAlign=top;align=center;html=1;shape=mxgraph.aws3.cloud_2;fillColor=#F58534;gradientColor=none;" vertex="1" parent="1">
          <mxGeometry x="110" y="70" width="60" height="40" as="geometry" />
        </mxCell>
        <mxCell id="XKWNuatbYuGmgxDe8Qxi-5" value="Amazon S3" style="sketch=0;outlineConnect=0;fontColor=#232F3E;gradientColor=none;strokeColor=#ffffff;fillColor=#232F3E;dashed=0;verticalLabelPosition=middle;verticalAlign=bottom;align=center;html=1;whiteSpace=wrap;fontSize=10;fontStyle=1;spacing=3;shape=mxgraph.aws4.productIcon;prIcon=mxgraph.aws4.s3;" vertex="1" parent="1">
          <mxGeometry x="295" y="150" width="70" height="85" as="geometry" />
        </mxCell>
        <mxCell id="XKWNuatbYuGmgxDe8Qxi-6" value="Glue" style="text;html=1;align=center;verticalAlign=middle;whiteSpace=wrap;rounded=0;" vertex="1" parent="1">
          <mxGeometry x="460" y="223" width="60" height="30" as="geometry" />
        </mxCell>
        <mxCell id="XKWNuatbYuGmgxDe8Qxi-7" value="Athena" style="text;html=1;align=center;verticalAlign=middle;whiteSpace=wrap;rounded=0;" vertex="1" parent="1">
          <mxGeometry x="305" y="349" width="60" height="30" as="geometry" />
        </mxCell>
        <mxCell id="XKWNuatbYuGmgxDe8Qxi-8" value="" style="aspect=fixed;sketch=0;html=1;dashed=0;whitespace=wrap;verticalLabelPosition=bottom;verticalAlign=top;fillColor=#2875E2;strokeColor=#ffffff;points=[[0.005,0.63,0],[0.1,0.2,0],[0.9,0.2,0],[0.5,0,0],[0.995,0.63,0],[0.72,0.99,0],[0.5,1,0],[0.28,0.99,0]];shape=mxgraph.kubernetes.icon2;kubernetesLabel=1;prIcon=api" vertex="1" parent="1">
          <mxGeometry x="130" y="168.5" width="50" height="48" as="geometry" />
        </mxCell>
        <mxCell id="XKWNuatbYuGmgxDe8Qxi-10" value="" style="endArrow=classic;startArrow=classic;html=1;rounded=0;" edge="1" parent="1">
          <mxGeometry width="50" height="50" relative="1" as="geometry">
            <mxPoint x="450" y="192" as="sourcePoint" />
            <mxPoint x="365" y="192.00157894736844" as="targetPoint" />
            <Array as="points">
              <mxPoint x="435" y="192.37" />
            </Array>
          </mxGeometry>
        </mxCell>
        <mxCell id="XKWNuatbYuGmgxDe8Qxi-12" value="" style="endArrow=classic;html=1;rounded=0;" edge="1" parent="1" source="XKWNuatbYuGmgxDe8Qxi-3" target="XKWNuatbYuGmgxDe8Qxi-5">
          <mxGeometry width="50" height="50" relative="1" as="geometry">
            <mxPoint x="400" y="310" as="sourcePoint" />
            <mxPoint x="450" y="220" as="targetPoint" />
          </mxGeometry>
        </mxCell>
        <mxCell id="XKWNuatbYuGmgxDe8Qxi-13" value="Sportdata.io" style="text;html=1;align=center;verticalAlign=middle;whiteSpace=wrap;rounded=0;" vertex="1" parent="1">
          <mxGeometry x="110" y="223" width="100" height="22" as="geometry" />
        </mxCell>
        <mxCell id="XKWNuatbYuGmgxDe8Qxi-15" value="" style="endArrow=classic;html=1;rounded=0;exitX=1.035;exitY=0.499;exitDx=0;exitDy=0;exitPerimeter=0;" edge="1" parent="1" source="XKWNuatbYuGmgxDe8Qxi-8" target="XKWNuatbYuGmgxDe8Qxi-5">
          <mxGeometry width="50" height="50" relative="1" as="geometry">
            <mxPoint x="200" y="223" as="sourcePoint" />
            <mxPoint x="250" y="173" as="targetPoint" />
          </mxGeometry>
        </mxCell>
      </root>
    </mxGraphModel>
  </diagram>
</mxfile>
